name rise37.2698peak67.6939fall79.5734.mot
datacolumns 19
datarows 23
range 1.71165900000000 1.74833100000000
endheader
time	ground_force1_vx	ground_force1_vy	ground_force1_vz	ground_force1_px	ground_force1_py	ground_force1_pz	ground_force2_vx	ground_force2_vy	ground_force2_vz	ground_force2_px	ground_force2_py	ground_force2_pz	ground_torque1_x	ground_torque1_y	ground_torque1_z	ground_torque2_x	ground_torque2_y	ground_torque2_z	
1.71165900000000	-42.61378400000000	792.66963299999998	59.22613000000000	0.14011500000000	0.00000000000000	0.10527600000000	-5.29838500000000	66.51243200000000	9.49906600000000	0.35104700000000	0.00000000000000	-0.08507500000000	0.00000000000000	24.56802400000000	0.00000000000000	0.00000000000000	6.32797300000000	0.00000000000000	
1.71332400000000	-42.69017100000000	790.13081599999998	58.91966700000000	0.13961300000000	0.00000000000000	0.10512900000000	-5.34379400000000	71.65765800000000	9.87265000000000	0.35487300000000	0.00000000000000	-0.08533600000000	0.00000000000000	24.39881900000000	0.00000000000000	0.00000000000000	6.65397300000000	0.00000000000000	
1.71499900000000	-42.77194700000000	787.47169899999994	58.59101000000000	0.13913100000000	0.00000000000000	0.10497600000000	-5.30579700000000	76.56690999999999	10.15072400000000	0.35856300000000	0.00000000000000	-0.08558700000000	0.00000000000000	24.22806500000000	0.00000000000000	0.00000000000000	6.92479800000000	0.00000000000000	
1.71666400000000	-42.85972300000000	784.69181200000003	58.24014200000000	0.13866800000000	0.00000000000000	0.10481900000000	-5.18888900000000	81.26891600000000	10.34008300000000	0.36212600000000	0.00000000000000	-0.08582900000000	0.00000000000000	24.05597100000000	0.00000000000000	0.00000000000000	7.14387900000000	0.00000000000000	
1.71832600000000	-42.95409600000000	781.79076799999996	57.86708600000000	0.13822400000000	0.00000000000000	0.10465600000000	-4.99915800000000	85.80564000000000	10.44987900000000	0.36556900000000	0.00000000000000	-0.08606400000000	0.00000000000000	23.88273700000000	0.00000000000000	0.00000000000000	7.31632200000000	0.00000000000000	
1.71999700000000	-43.05564300000000	778.76826700000004	57.47190400000000	0.13780000000000	0.00000000000000	0.10448800000000	-4.74355200000000	90.22716300000000	10.49055300000000	0.36889800000000	0.00000000000000	-0.08629300000000	0.00000000000000	23.70855200000000	0.00000000000000	0.00000000000000	7.44824200000000	0.00000000000000	
1.72166500000000	-43.16492100000000	775.62409300000002	57.05469900000000	0.13739600000000	0.00000000000000	0.10431400000000	-4.42921300000000	94.58680699999999	10.47284700000000	0.37211700000000	0.00000000000000	-0.08651600000000	0.00000000000000	23.53360000000000	0.00000000000000	0.00000000000000	7.54612000000000	0.00000000000000	
1.72332900000000	-43.28246200000000	772.35810600000002	56.61561500000000	0.13701200000000	0.00000000000000	0.10413500000000	-4.06291800000000	98.93680900000000	10.40697100000000	0.37522800000000	0.00000000000000	-0.08673500000000	0.00000000000000	23.35805000000000	0.00000000000000	0.00000000000000	7.61624100000000	0.00000000000000	
1.72499300000000	-43.40876900000000	768.97024799999997	56.15483400000000	0.13664600000000	0.00000000000000	0.10395000000000	-3.65064300000000	103.32482800000000	10.30194100000000	0.37823300000000	0.00000000000000	-0.08695100000000	0.00000000000000	23.18206200000000	0.00000000000000	0.00000000000000	7.66424000000000	0.00000000000000	
1.72666500000000	-43.54431500000000	765.46053199999994	55.67257800000000	0.13630000000000	0.00000000000000	0.10376000000000	-3.19726900000000	107.79138200000000	10.16513500000000	0.38113500000000	0.00000000000000	-0.08716500000000	0.00000000000000	23.00578500000000	0.00000000000000	0.00000000000000	7.69477400000000	0.00000000000000	
1.72832800000000	-43.68953700000000	761.82904199999996	55.16910700000000	0.13597100000000	0.00000000000000	0.10356500000000	-2.70643300000000	112.36826100000000	10.00204800000000	0.38393200000000	0.00000000000000	-0.08737700000000	0.00000000000000	22.82935400000000	0.00000000000000	0.00000000000000	7.71132700000000	0.00000000000000	
1.72999800000000	-43.84483400000000	758.07592899999997	54.64472200000000	0.13566100000000	0.00000000000000	0.10336400000000	-2.18049600000000	117.07785800000001	9.81622800000000	0.38662600000000	0.00000000000000	-0.08758900000000	0.00000000000000	22.65289300000000	0.00000000000000	0.00000000000000	7.71613400000000	0.00000000000000	
1.73167400000000	-44.01056000000000	754.20141000000001	54.09976000000000	0.13536700000000	0.00000000000000	0.10315700000000	-1.62062400000000	121.93329700000000	9.60937800000000	0.38921600000000	0.00000000000000	-0.08780000000000	0.00000000000000	22.47651300000000	0.00000000000000	0.00000000000000	7.71021400000000	0.00000000000000	
1.73332600000000	-44.18702600000000	750.20575799999995	53.53459600000000	0.13508900000000	0.00000000000000	0.10294600000000	-1.02694100000000	126.93921100000000	9.38157000000000	0.39170000000000	0.00000000000000	-0.08801100000000	0.00000000000000	22.30031100000000	0.00000000000000	0.00000000000000	7.69349700000000	0.00000000000000	
1.73499600000000	-44.37449100000000	746.08930099999998	52.94964000000000	0.13482600000000	0.00000000000000	0.10272900000000	-0.39874700000000	132.09298600000000	9.13154900000000	0.39407800000000	0.00000000000000	-0.08822300000000	0.00000000000000	22.12437200000000	0.00000000000000	0.00000000000000	7.66500300000000	0.00000000000000	
1.73666500000000	-44.57315900000000	741.85242100000005	52.34533900000000	0.13457700000000	0.00000000000000	0.10250700000000	0.26524900000000	137.38629200000000	8.85708300000000	0.39634900000000	0.00000000000000	-0.08843600000000	0.00000000000000	21.94876700000000	0.00000000000000	0.00000000000000	7.62306700000000	0.00000000000000	
1.73832800000000	-44.78317800000000	737.49554400000000	51.72217200000000	0.13434000000000	0.00000000000000	0.10228000000000	0.96668000000000	142.80673400000001	8.55531400000000	0.39851100000000	0.00000000000000	-0.08865100000000	0.00000000000000	21.77355500000000	0.00000000000000	0.00000000000000	7.56557400000000	0.00000000000000	
1.73999600000000	-45.00463500000000	733.01914099999999	51.08065200000000	0.13411400000000	0.00000000000000	0.10204900000000	1.70729100000000	148.33948599999999	8.22310800000000	0.40056300000000	0.00000000000000	-0.08886800000000	0.00000000000000	21.59878000000000	0.00000000000000	0.00000000000000	7.49019000000000	0.00000000000000	
1.74166200000000	-45.23754900000000	728.42371800000001	50.42132400000000	0.13389700000000	0.00000000000000	0.10181200000000	2.48873600000000	153.96877599999999	7.85735300000000	0.40250300000000	0.00000000000000	-0.08908700000000	0.00000000000000	21.42447600000000	0.00000000000000	0.00000000000000	7.39457500000000	0.00000000000000	
1.74332900000000	-45.48187600000000	723.70981700000004	49.74476200000000	0.13368800000000	0.00000000000000	0.10157100000000	3.31241400000000	159.67914900000000	7.45521000000000	0.40433100000000	0.00000000000000	-0.08930800000000	0.00000000000000	21.25066100000000	0.00000000000000	0.00000000000000	7.27655800000000	0.00000000000000	
1.74499500000000	-45.73749500000000	718.87800900000002	49.05156900000000	0.13348400000000	0.00000000000000	0.10132600000000	4.17934900000000	165.45646600000001	7.01429700000000	0.40604400000000	0.00000000000000	-0.08953300000000	0.00000000000000	21.07734300000000	0.00000000000000	0.00000000000000	7.13427300000000	0.00000000000000	
1.74666000000000	-46.00421400000000	713.92889200000002	48.34237500000000	0.13328500000000	0.00000000000000	0.10107700000000	5.09010700000000	171.28859900000000	6.53282000000000	0.40764200000000	0.00000000000000	-0.08975900000000	0.00000000000000	20.90451700000000	0.00000000000000	0.00000000000000	6.96625600000000	0.00000000000000	
1.74833100000000	-46.28176300000000	708.86308299999996	47.61783600000000	0.13308800000000	0.00000000000000	0.10082300000000	6.04476500000000	177.16584499999999	6.00963300000000	0.40912300000000	0.00000000000000	-0.08998900000000	0.00000000000000	20.73216700000000	0.00000000000000	0.00000000000000	6.77150100000000	0.00000000000000	
